# File created by Blade
# Date/Time:  Wed Jan 21 17:21:31 2015
# Frame Rate: 120.000 fps
#------------------------------------------------------
:FULLY-SPECIFIED
:DEGREES
388
root 20.103099 21.285630 -22.182033 -144.850005 14.330896 -195.127816
Spine 56.872365 15.196710 -10.034514
Head 3.732841 -16.450457 12.443137
LeftShoulder 32.845580 -43.285775 -3.657534
LeftArm 37.590320 31.908822 -44.612974
LeftForeArm -27.526502 -0.000000 10.201170
LeftHand -4.319641 0.000000 2.837081
LeftHandThumb1 -26.253704 0.000000 33.147579
RightShoulder 14.269811 2.801171 -3.341708
RightArm 48.950824 21.784116 49.011821
RightForeArm -7.855903 -0.000000 24.663777
RightHand -9.657154 -0.000000 -13.755197
RightHandThumb1 -24.326973 -0.000000 -32.862282
LeftUpLeg -111.815363 -9.993135 -21.096433
LeftLeg 90.754671 -0.000000 -0.000000
LeftFoot -33.974711 29.011524 -10.104818
LeftToeBase 22.955308 -0.000000 -0.000000
RightUpLeg -9.403465 -4.065417 -6.504568
RightLeg 61.873474 -0.000000 -0.000000
RightFoot -42.177699 -22.023356 23.810625
RightToeBase -13.542945 -0.000000 0.000000
389
root 20.120358 21.279265 -22.187059 -144.801041 14.204153 -195.351602
Spine 56.647496 15.148141 -10.269935
Head 4.180273 -16.581676 12.625790
LeftShoulder 32.994308 -43.354049 -3.724260
LeftArm 37.559760 31.844677 -44.856832
LeftForeArm -27.611316 -0.000000 9.648694
LeftHand -4.186175 -0.000000 2.323263
LeftHandThumb1 -26.253704 0.000000 33.147579
RightShoulder 14.265621 2.859098 -3.248537
RightArm 48.952358 21.597537 49.010530
RightForeArm -7.696042 -0.000000 24.200315
RightHand -9.621154 -0.000000 -13.635064
RightHandThumb1 -24.326973 -0.000000 -32.862282
LeftUpLeg -111.798325 -10.110808 -21.330694
LeftLeg 90.769645 -0.000000 -0.000000
LeftFoot -34.010759 28.774823 -10.146696
LeftToeBase 22.855158 -0.000000 -0.000000
RightUpLeg -9.000775 -4.170088 -6.503595
RightLeg 61.256482 -0.000000 -0.000000
RightFoot -42.433805 -21.836552 24.142825
RightToeBase -12.870631 -0.000000 0.000000
390
root 20.138219 21.264424 -22.196199 -144.812444 14.061891 -195.599331
Spine 56.457707 15.073023 -10.523788
Head 4.639217 -16.705279 12.758216
LeftShoulder 33.060623 -43.405936 -3.764005
LeftArm 37.601679 31.878341 -45.031461
LeftForeArm -27.269145 -0.000000 9.158792
LeftHand -4.535806 -0.000000 2.772290
LeftHandThumb1 -26.253704 0.000000 33.147579
RightShoulder 14.289103 2.950562 -3.131418
RightArm 48.898761 21.354553 48.936677
RightForeArm -7.513670 0.000000 23.727543
RightHand -9.523758 -0.000000 -13.529661
RightHandThumb1 -24.326973 -0.000000 -32.862282
LeftUpLeg -111.731084 -10.236991 -21.585769
LeftLeg 90.810492 -0.000000 -0.000000
LeftFoot -34.095754 28.621677 -10.183663
LeftToeBase 22.926687 -0.000000 -0.000000
RightUpLeg -8.542675 -4.253875 -6.524672
RightLeg 60.695401 -0.000000 -0.000000
RightFoot -42.763801 -21.474925 24.495414
RightToeBase -11.929106 -0.000000 0.000000
391
root 20.155718 21.240050 -22.209652 -144.879369 13.940711 -195.872663
Spine 56.288086 15.001763 -10.839253
Head 5.097353 -16.820354 12.871597
LeftShoulder 33.033232 -43.365354 -3.695067
LeftArm 37.714602 31.852763 -45.147957
LeftForeArm -27.145800 -0.000000 8.653014
LeftHand -4.565075 0.000000 2.536482
LeftHandThumb1 -26.253704 0.000000 33.147579
RightShoulder 14.372425 3.122842 -3.147560
RightArm 48.740987 21.138956 49.145933
RightForeArm -7.582209 -0.000000 23.365641
RightHand -9.507866 0.000000 -13.352166
RightHandThumb1 -24.326973 -0.000000 -32.862282
LeftUpLeg -111.638661 -10.341058 -21.856832
LeftLeg 90.889841 -0.000000 -0.000000
LeftFoot -34.194551 28.396288 -10.202541
LeftToeBase 22.990225 -0.000000 -0.000000
RightUpLeg -8.040587 -4.286267 -6.576529
RightLeg 60.169462 -0.000000 -0.000000
RightFoot -42.901643 -21.455795 24.515277
RightToeBase -11.375911 -0.000000 0.000000
392
root 20.171637 21.209417 -22.220586 -144.938974 13.787200 -196.157363
Spine 56.093335 14.900030 -11.129445
Head 5.557803 -16.931619 12.957964
LeftShoulder 33.093406 -43.477996 -3.783104
LeftArm 37.724318 32.034854 -45.314380
LeftForeArm -27.179597 0.000000 8.088467
LeftHand -4.421164 0.000000 2.157692
LeftHandThumb1 -26.253704 0.000000 33.147579
RightShoulder 14.296290 3.172100 -3.056596
RightArm 48.831398 20.774244 49.116906
RightForeArm -7.497046 0.000000 22.793059
RightHand -9.404328 -0.000000 -13.182813
RightHandThumb1 -24.326973 -0.000000 -32.862282
LeftUpLeg -111.558892 -10.491224 -22.153466
LeftLeg 90.972497 -0.000000 -0.000000
LeftFoot -34.321420 28.221539 -10.269526
LeftToeBase 23.038020 -0.000000 -0.000000
RightUpLeg -7.593309 -4.282232 -6.614596
RightLeg 59.741637 -0.000000 -0.000000
RightFoot -43.103403 -21.195876 24.853198
RightToeBase -11.277519 -0.000000 0.000000
393
root 20.182242 21.171693 -22.241117 -145.094897 13.601948 -196.515199
Spine 55.979314 14.746224 -11.436139
Head 6.026244 -17.048569 13.020182
LeftShoulder 33.174256 -43.595260 -3.874891
LeftArm 37.613835 32.154853 -45.590874
LeftForeArm -27.022341 -0.000000 7.603006
LeftHand -4.367482 -0.000000 1.849837
LeftHandThumb1 -26.253704 0.000000 33.147579
RightShoulder 14.281160 3.274839 -2.990220
RightArm 48.763958 20.434711 49.111022
RightForeArm -7.468267 -0.000000 22.358698
RightHand -9.407595 -0.000000 -12.941784
RightHandThumb1 -24.326973 -0.000000 -32.862282
LeftUpLeg -111.373481 -10.676050 -22.509486
LeftLeg 91.079477 -0.000000 -0.000000
LeftFoot -34.386266 28.039277 -10.232777
LeftToeBase 22.957762 -0.000000 -0.000000
RightUpLeg -7.057198 -4.345471 -6.713649
RightLeg 59.346618 -0.000000 -0.000000
RightFoot -43.266304 -21.173905 24.859416
RightToeBase -10.798974 -0.000000 0.000000
394
root 20.215539 21.113663 -22.259484 -145.227870 13.562594 -196.653521
Spine 55.793632 14.901305 -11.674224
Head 6.518709 -17.177835 13.131046
LeftShoulder 33.209523 -43.584122 -3.852985
LeftArm 37.644199 32.295162 -45.731438
LeftForeArm -26.745275 -0.000000 7.135637
LeftHand -4.354281 -0.000000 1.639254
LeftHandThumb1 -26.253704 0.000000 33.147579
RightShoulder 14.206091 3.126776 -2.919670
RightArm 48.906349 20.134492 49.093009
RightForeArm -7.256501 0.000000 21.817765
RightHand -9.290991 -0.000000 -12.832414
RightHandThumb1 -24.326973 -0.000000 -32.862282
LeftUpLeg -111.375974 -10.575224 -22.786803
LeftLeg 91.377215 -0.000000 -0.000000
LeftFoot -34.530363 27.733644 -10.282587
LeftToeBase 22.929302 -0.000000 -0.000000
RightUpLeg -6.603569 -4.069415 -6.648995
RightLeg 59.084950 -0.000000 -0.000000
RightFoot -43.422546 -21.197870 24.943586
RightToeBase -10.570273 -0.000000 0.000000
395
root 20.232409 21.057509 -22.279352 -145.396180 13.441771 -196.969925
Spine 55.614670 14.837064 -12.021550
Head 7.042431 -17.249003 13.142048
LeftShoulder 33.217019 -43.560193 -3.896736
LeftArm 37.715049 32.531279 -45.727747
LeftForeArm -26.962979 -0.000000 6.657251
LeftHand -4.295188 -0.000000 1.339632
LeftHandThumb1 -26.253704 0.000000 33.147579
RightShoulder 14.202523 3.101610 -2.897328
RightArm 48.905637 19.820072 49.185275
RightForeArm -7.160353 -0.000000 21.397308
RightHand -9.252996 -0.000000 -12.641596
RightHandThumb1 -24.326973 -0.000000 -32.862282
LeftUpLeg -111.271713 -10.672082 -23.139571
LeftLeg 91.581751 -0.000000 -0.000000
LeftFoot -34.667042 27.469301 -10.342981
LeftToeBase 23.009750 -0.000000 -0.000000
RightUpLeg -6.182638 -4.019246 -6.731738
RightLeg 58.902787 -0.000000 -0.000000
RightFoot -43.506059 -21.138589 25.086051
RightToeBase -10.954520 -0.000000 0.000000
